<?xml version="1.0" standalone="no"?>
<!DOCTYPE svg PUBLIC "-//W3C//DTD SVG 20010904//EN"
 "http://www.w3.org/TR/2001/REC-SVG-20010904/DTD/svg10.dtd">
<svg version="1.0" xmlns="http://www.w3.org/2000/svg"
 width="747.000000pt" height="743.000000pt" viewBox="0 0 747.000000 743.000000"
 preserveAspectRatio="xMidYMid meet">

<g transform="translate(0.000000,743.000000) scale(0.100000,-0.100000)"
fill="#000000" stroke="none">
<path d="M3485 6834 c-16 -2 -73 -9 -125 -15 -52 -6 -158 -23 -235 -39 -642
-128 -1246 -469 -1683 -950 -438 -483 -699 -1036 -798 -1692 -21 -142 -30
-530 -15 -698 70 -785 443 -1532 1021 -2044 201 -177 288 -243 486 -362 363
-219 742 -353 1186 -420 142 -21 530 -30 698 -15 1004 89 1891 649 2417 1526
220 365 360 780 415 1225 20 160 17 614 -5 765 -67 457 -202 842 -429 1219
-202 335 -487 648 -811 889 -430 321 -883 507 -1447 594 -90 14 -604 27 -675
17z m648 -68 c526 -75 982 -255 1408 -556 179 -127 405 -338 558 -520 391
-466 622 -1002 703 -1630 17 -139 17 -552 -1 -690 -75 -589 -284 -1094 -644
-1560 -103 -132 -348 -378 -492 -493 -454 -363 -978 -582 -1575 -659 -155 -19
-572 -17 -728 6 -367 51 -648 135 -957 286 -416 203 -771 486 -1058 845 -537
670 -769 1531 -642 2379 136 903 671 1701 1464 2180 362 220 812 371 1231 415
58 6 119 13 135 15 67 9 496 -4 598 -18z"/>
<path d="M3680 6516 c0 -8 11 -17 25 -20 23 -6 25 -11 20 -39 -3 -18 -12 -88
-20 -156 -8 -68 -16 -124 -17 -125 -2 -1 -15 -7 -30 -14 -16 -6 -28 -16 -28
-22 0 -18 49 -11 70 10 11 11 26 20 34 20 16 0 21 25 36 183 6 59 13 113 16
121 3 8 -4 16 -20 20 -14 3 -26 13 -26 21 0 10 -10 15 -30 15 -19 0 -30 -5
-30 -14z"/>
<path d="M4020 6400 c-39 -78 -48 -105 -44 -130 4 -16 9 -30 13 -30 4 0 24 35
44 78 21 42 49 97 62 122 23 45 20 59 -12 60 -7 0 -35 -45 -63 -100z"/>
<path d="M3124 6472 c-17 -9 -29 -23 -27 -30 3 -7 -9 -90 -27 -185 -28 -149
-35 -174 -56 -190 -13 -10 -24 -23 -24 -28 0 -18 42 -9 74 16 34 26 38 40 67
225 6 41 15 83 20 92 5 10 10 34 11 53 1 20 5 38 10 41 9 6 1 24 -10 24 -4 -1
-21 -9 -38 -18z"/>
<path d="M4479 6387 c-6 -11 -58 -76 -115 -145 -57 -69 -104 -129 -104 -134 0
-9 18 -9 41 0 16 7 239 271 239 283 0 4 -11 9 -25 12 -19 3 -29 -1 -36 -16z"/>
<path d="M2775 6376 c-27 -12 -102 -42 -165 -66 -63 -24 -117 -45 -119 -46 -8
-6 51 -114 62 -114 34 1 38 16 18 67 l-19 49 46 17 c125 45 262 103 262 110 0
13 -34 6 -85 -17z"/>
<path d="M4087 6287 c-20 -45 -37 -95 -37 -112 0 -23 -7 -34 -33 -49 l-32 -20
30 -6 c23 -4 32 -1 37 12 4 10 19 20 33 24 22 5 25 11 25 53 0 25 5 75 10 111
5 35 8 65 7 66 -1 2 -19 -34 -40 -79z"/>
<path d="M3847 6331 c-9 -42 -9 -144 -1 -165 3 -9 13 -16 21 -16 10 0 14 -7
10 -20 -4 -16 0 -20 19 -20 28 0 29 -13 -16 155 -24 90 -27 96 -33 66z"/>
<path d="M3212 6292 c4 -41 2 -63 -5 -66 -7 -3 2 -3 18 0 68 13 67 11 34 64
-45 73 -53 73 -47 2z"/>
<path d="M2842 6320 c-19 -8 -21 -13 -12 -30 11 -21 27 -25 49 -11 10 7 11 13
2 30 -7 11 -13 21 -14 20 -1 0 -12 -4 -25 -9z"/>
<path d="M4518 6254 c-38 -54 -37 -80 3 -89 17 -4 31 -5 32 -3 1 1 0 32 -3 67
l-5 65 -27 -40z"/>
<path d="M4827 6276 c-3 -8 1 -20 9 -26 8 -7 14 -16 14 -19 0 -4 -31 -66 -70
-138 -38 -72 -70 -134 -70 -137 0 -3 13 -6 28 -6 27 0 34 10 104 142 l76 142
-22 17 c-42 32 -64 40 -69 25z"/>
<path d="M2685 6258 c-11 -6 -22 -12 -24 -14 -1 -1 20 -62 49 -134 l52 -132
-23 -24 c-12 -13 -20 -26 -17 -29 11 -11 56 7 79 31 l23 24 -58 145 c-32 80
-59 145 -59 145 -1 0 -11 -6 -22 -12z"/>
<path d="M2328 6167 c-43 -23 -76 -46 -75 -52 6 -17 31 -17 52 0 11 8 41 29
68 45 26 16 47 34 47 40 0 16 -9 12 -92 -33z"/>
<path d="M3288 6183 c-15 -4 -16 -8 -7 -25 9 -16 7 -24 -10 -42 -12 -12 -21
-25 -21 -29 0 -15 36 -6 72 19 l38 26 -21 29 c-11 16 -23 28 -27 28 -4 -1 -15
-3 -24 -6z"/>
<path d="M5000 6161 c0 -6 5 -13 10 -16 17 -11 11 -71 -11 -99 l-20 -26 29 0
c32 0 55 20 71 63 14 37 1 62 -40 76 -39 13 -39 13 -39 2z"/>
<path d="M4420 6130 c0 -5 18 -14 40 -20 38 -10 40 -13 40 -50 0 -38 -2 -40
-31 -40 -55 0 -26 -24 62 -52 97 -31 99 -31 99 -19 0 5 -29 17 -65 26 -70 19
-84 39 -35 50 26 6 30 11 30 40 0 26 -5 34 -22 39 -13 3 -44 12 -70 20 -27 8
-48 11 -48 6z"/>
<path d="M2334 6092 c-8 -5 13 -50 62 -137 64 -114 71 -132 58 -146 -15 -17
-19 -39 -6 -39 21 0 73 42 70 58 -2 9 -34 75 -73 145 -67 121 -83 138 -111
119z"/>
<path d="M4264 6054 c74 -25 96 -30 81 -15 -15 12 -105 41 -129 40 -12 0 10
-11 48 -25z"/>
<path d="M5270 6020 c0 -6 5 -19 12 -29 10 -17 3 -29 -58 -97 -38 -42 -81 -91
-96 -109 l-28 -33 24 -4 c21 -4 40 13 126 109 l102 115 -28 29 c-28 29 -54 38
-54 19z"/>
<path d="M2033 5976 c-61 -35 -184 -137 -180 -149 7 -23 26 -13 122 64 55 45
114 87 130 95 l30 13 -30 0 c-16 1 -49 -10 -72 -23z"/>
<path d="M4896 5973 c-3 -10 -5 -54 -5 -99 l1 -81 53 -26 c42 -20 54 -23 58
-12 4 8 -6 18 -24 25 l-29 12 0 93 c0 75 -3 94 -16 99 -25 10 -32 7 -38 -11z"/>
<path d="M4640 5941 c0 -9 158 -101 174 -101 41 0 -83 88 -147 104 -15 3 -27
2 -27 -3z"/>
<path d="M2154 5907 c80 -49 117 -147 82 -216 -9 -16 -11 -33 -6 -41 7 -11 16
-6 44 22 39 39 46 79 25 135 -22 60 -102 123 -156 123 -28 0 -28 0 11 -23z"/>
<path d="M5298 5800 c-60 -76 -81 -116 -73 -141 5 -14 0 -27 -14 -40 -27 -26
-27 -31 8 -52 34 -20 74 -13 45 7 -17 13 -16 19 60 219 14 37 24 67 23 67 -1
0 -23 -27 -49 -60z"/>
<path d="M1941 5811 c-17 -11 -17 -10 81 -138 67 -87 77 -105 69 -122 -26 -48
-6 -54 40 -13 l32 29 -98 126 c-54 70 -100 127 -104 127 -3 0 -12 -4 -20 -9z"/>
<path d="M5478 5732 c-84 -48 -117 -76 -105 -88 5 -5 217 118 217 126 0 21
-21 14 -112 -38z"/>
<path d="M1724 5718 c-90 -99 -88 -97 -71 -104 29 -11 100 58 112 109 9 36 -5
34 -41 -5z"/>
<path d="M5020 5743 c0 -6 27 -34 61 -63 45 -40 63 -50 72 -41 9 9 0 22 -33
56 -42 41 -100 69 -100 48z"/>
<path d="M5518 5661 c-54 -31 -80 -53 -119 -102 l-29 -37 24 -4 c20 -4 37 9
100 84 42 48 75 88 73 87 -1 -1 -23 -13 -49 -28z"/>
<path d="M1754 5618 c-7 -11 26 -44 101 -102 26 -20 109 -44 88 -26 -91 80
-164 140 -172 140 -5 0 -13 -5 -17 -12z"/>
<path d="M5755 5587 c-4 -9 -2 -24 5 -32 11 -13 10 -18 -3 -28 -8 -7 -59 -48
-112 -92 -85 -71 -94 -81 -76 -89 21 -9 72 27 204 146 l48 43 -30 35 c-25 30
-30 33 -36 17z"/>
<path d="M1511 5479 c-31 -36 -40 -54 -33 -61 8 -8 21 -3 46 15 40 31 78 81
69 91 -16 16 -41 2 -82 -45z"/>
<path d="M5296 5511 c-8 -12 141 -134 153 -126 17 10 0 34 -61 85 -58 49 -81
59 -92 41z"/>
<path d="M1571 5416 c-9 -11 10 -32 93 -105 98 -86 105 -93 96 -117 -13 -33
-13 -34 4 -34 8 0 25 14 37 31 18 26 19 33 8 44 -43 40 -220 195 -223 195 -2
0 -9 -6 -15 -14z"/>
<path d="M1718 5413 c6 -2 18 -2 25 0 6 3 1 5 -13 5 -14 0 -19 -2 -12 -5z"/>
<path d="M1788 5403 c6 -2 18 -2 25 0 6 3 1 5 -13 5 -14 0 -19 -2 -12 -5z"/>
<path d="M1853 5393 c9 -2 23 -2 30 0 6 3 -1 5 -18 5 -16 0 -22 -2 -12 -5z"/>
<path d="M1918 5383 c6 -2 18 -2 25 0 6 3 1 5 -13 5 -14 0 -19 -2 -12 -5z"/>
<path d="M5895 5349 c-47 -36 -49 -39 -32 -63 11 -15 17 -17 35 -7 12 6 19 17
16 25 -3 8 8 23 25 36 30 20 33 40 8 40 -7 0 -30 -14 -52 -31z"/>
<path d="M5460 5341 c0 -6 26 -40 57 -78 31 -37 58 -70 60 -72 2 -3 8 0 14 6
19 19 -37 113 -85 140 -25 15 -46 16 -46 4z"/>
<path d="M1383 5298 c-16 -21 -142 -234 -149 -252 -4 -9 -1 -16 6 -16 25 0 65
43 113 123 89 148 84 136 67 147 -20 13 -26 12 -37 -2z"/>
<path d="M5975 5280 c-4 -6 -1 -18 6 -26 6 -8 10 -16 8 -18 -2 -1 -55 -35
-118 -74 -79 -50 -109 -73 -98 -78 9 -3 22 -2 29 2 70 40 238 148 238 153 0 4
-7 17 -16 29 -16 23 -39 29 -49 12z"/>
<path d="M1491 5141 c-15 -29 -17 -41 -8 -50 20 -20 36 -12 57 29 20 39 20 39
1 50 -28 14 -29 14 -50 -29z"/>
<path d="M1633 5158 c0 -7 -4 -20 -7 -29 -4 -9 1 -22 13 -33 19 -17 19 -19 3
-53 -16 -33 -16 -36 3 -49 17 -13 21 -10 45 34 l27 47 -25 27 c-13 14 -21 31
-18 37 4 5 -2 15 -13 20 -25 14 -28 14 -28 -1z"/>
<path d="M6078 5137 c-11 -9 -13 -18 -7 -29 7 -12 1 -23 -21 -42 -26 -22 -29
-29 -20 -46 12 -23 15 -24 41 -9 11 5 17 14 13 20 -3 5 6 19 20 30 31 24 32
39 9 68 -15 17 -21 18 -35 8z"/>
<path d="M5656 5103 c-6 -6 3 -22 74 -135 56 -89 74 -55 26 50 -19 42 -86 99
-100 85z"/>
<path d="M1336 5041 c-4 -5 45 -40 106 -78 102 -63 113 -73 116 -101 2 -18 7
-32 10 -32 9 0 46 60 40 65 -11 10 -254 155 -260 155 -4 0 -9 -4 -12 -9z"/>
<path d="M3565 4919 c-177 -36 -316 -91 -476 -186 -149 -89 -353 -293 -441
-442 -77 -130 -134 -270 -171 -416 -19 -79 -22 -116 -22 -300 0 -227 7 -271
65 -440 91 -261 250 -480 467 -642 109 -82 242 -157 343 -194 93 -34 233 -69
275 -68 36 1 33 3 -25 14 -304 61 -633 272 -814 521 -47 65 -126 192 -126 203
0 3 -9 23 -20 43 -26 49 -55 132 -87 248 -25 89 -27 108 -27 315 0 207 2 226
27 320 15 55 32 114 39 130 25 67 81 191 93 205 7 8 23 35 36 60 29 54 120
170 192 243 65 67 198 171 257 203 25 14 70 38 100 55 99 54 283 114 383 124
37 4 67 11 67 16 0 13 -31 10 -135 -12z"/>
<path d="M3773 4933 c9 -2 23 -2 30 0 6 3 -1 5 -18 5 -16 0 -22 -2 -12 -5z"/>
<path d="M1156 4856 c-23 -24 -47 -68 -75 -141 -23 -58 -41 -110 -41 -115 0
-16 30 -11 36 5 4 8 12 15 20 15 8 0 22 29 35 73 25 82 58 142 97 174 l27 23
-32 0 c-24 0 -42 -9 -67 -34z"/>
<path d="M5843 4770 c18 -44 37 -78 42 -77 6 2 11 25 11 52 2 42 -2 52 -29 77
-52 47 -58 35 -24 -52z"/>
<path d="M1390 4818 c0 -20 1 -21 20 -3 11 10 20 20 20 22 0 1 -9 3 -20 3 -14
0 -20 -7 -20 -22z"/>
<path d="M1261 4790 c-9 -5 -10 -10 -2 -14 6 -4 11 -27 11 -51 0 -26 5 -45 13
-48 14 -4 47 45 47 72 0 29 -45 56 -69 41z"/>
<path d="M3771 4756 c11 -9 190 -15 184 -6 -3 6 -47 10 -97 10 -50 0 -89 -2
-87 -4z"/>
<path d="M5980 4747 c0 -9 9 -37 21 -63 11 -27 18 -56 16 -66 -8 -30 17 -41
44 -19 l24 19 -35 68 c-33 64 -70 96 -70 61z"/>
<path d="M6147 4732 c-25 -26 -37 -62 -19 -62 4 1 30 21 57 45 l50 45 -31 0
c-20 0 -39 -9 -57 -28z"/>
<path d="M4075 4721 c61 -16 135 -38 165 -50 168 -67 352 -196 451 -318 30
-36 59 -71 66 -78 44 -46 132 -223 171 -345 152 -476 -27 -1023 -427 -1304
-148 -104 -331 -182 -468 -201 -29 -4 -56 -12 -59 -17 -9 -14 55 -4 171 26
116 31 173 52 237 87 29 16 70 38 91 49 166 91 334 277 437 483 75 153 97 228
114 391 20 200 0 380 -59 536 -46 122 -136 279 -203 350 -23 25 -42 48 -42 52
0 13 -176 158 -235 194 -138 83 -213 113 -375 150 -145 32 -169 29 -35 -5z"/>
<path d="M1435 4720 c14 -15 16 -29 12 -64 -5 -37 -4 -45 13 -49 18 -5 28 10
45 71 9 32 -20 62 -58 62 -29 0 -30 0 -12 -20z"/>
<path d="M1652 4634 c-22 -15 -22 -16 -22 -328 l0 -314 25 -55 c27 -58 126
-160 172 -178 49 -18 56 -8 12 19 -58 37 -106 93 -138 162 -26 55 -26 55 -29
359 -3 302 -3 304 19 327 21 23 22 24 3 24 -11 0 -30 -7 -42 -16z"/>
<path d="M2244 4629 c-17 -19 -19 -44 -24 -308 -5 -307 -7 -318 -63 -378 -23
-26 -22 -27 19 -13 16 6 40 27 54 47 25 36 25 37 30 329 4 260 7 294 23 311 9
11 17 23 17 26 0 15 -38 6 -56 -14z"/>
<path d="M3577 4633 c-32 -9 -56 -18 -53 -20 7 -7 105 17 112 28 3 5 4 9 2 8
-2 -1 -29 -8 -61 -16z"/>
<path d="M1953 4616 c-27 -23 -28 -28 -28 -115 0 -83 2 -92 25 -115 14 -13 36
-27 50 -31 l25 -7 -28 29 c-50 54 -50 193 0 239 25 23 25 24 5 24 -11 0 -34
-11 -49 -24z"/>
<path d="M5321 4614 l-31 -26 0 -1073 0 -1074 23 -25 c12 -14 35 -28 50 -32
l28 -7 -25 28 -26 28 0 1076 c1 1133 -1 1093 45 1119 19 11 18 11 -7 12 -14 0
-40 -12 -57 -26z"/>
<path d="M1155 4609 c-6 -9 5 -14 147 -70 80 -31 87 -36 90 -63 4 -41 21 -43
36 -4 6 17 11 33 9 34 -14 13 -278 110 -282 103z"/>
<path d="M3414 4581 c-73 -34 -95 -71 -74 -121 13 -31 54 -60 86 -60 13 0 12
5 -9 24 -60 56 -44 115 43 158 33 16 47 27 35 27 -11 1 -47 -12 -81 -28z"/>
<path d="M5918 4604 c-9 -9 65 -185 76 -181 15 5 17 86 4 112 -12 23 -59 75
-68 75 -4 0 -9 -2 -12 -6z"/>
<path d="M3878 4473 c7 -3 16 -2 19 1 4 3 -2 6 -13 5 -11 0 -14 -3 -6 -6z"/>
<path d="M4040 4450 c30 -11 64 -19 75 -19 25 1 -83 38 -110 38 -11 0 5 -9 35
-19z"/>
<path d="M3105 4391 c-69 -43 -175 -175 -175 -217 0 -33 47 -84 78 -84 l26 0
-26 28 c-55 59 -48 79 67 201 84 87 94 112 30 72z"/>
<path d="M1984 4282 c-12 -2 -30 -12 -40 -24 -16 -17 -19 -41 -22 -173 -3
-145 -2 -153 17 -158 19 -5 20 1 23 148 3 146 4 155 27 179 27 29 26 33 -5 28z"/>
<path d="M5513 4170 c3 -36 22 -126 42 -200 l37 -135 5 -262 6 -263 25 0 24 0
-5 233 c-5 235 -19 352 -62 497 -17 58 -64 182 -72 190 -3 3 -3 -24 0 -60z"/>
<path d="M3443 4153 c9 -2 23 -2 30 0 6 3 -1 5 -18 5 -16 0 -22 -2 -12 -5z"/>
<path d="M4128 4153 c6 -2 18 -2 25 0 6 3 1 5 -13 5 -14 0 -19 -2 -12 -5z"/>
<path d="M4035 4141 c-44 -11 -149 -69 -176 -97 -17 -18 -20 -27 -11 -36 8 -8
24 1 64 37 29 26 80 60 113 76 61 28 63 33 10 20z"/>
<path d="M3285 4114 c-116 -62 -197 -159 -235 -282 -26 -84 -25 -135 5 -229
44 -141 144 -256 591 -678 94 -89 129 -116 155 -120 19 -3 27 -2 19 1 -17 7
-330 312 -510 496 -166 169 -229 284 -229 418 0 59 21 144 48 198 29 58 137
165 198 196 31 16 41 25 28 26 -11 0 -43 -12 -70 -26z"/>
<path d="M3548 3970 c75 -18 144 -85 176 -172 17 -45 50 -78 81 -78 21 0 19
13 -5 27 -10 7 -25 32 -32 55 -19 63 -100 143 -163 163 -28 8 -59 14 -70 14
-11 -1 -6 -4 13 -9z"/>
<path d="M4208 3973 c6 -2 18 -2 25 0 6 3 1 5 -13 5 -14 0 -19 -2 -12 -5z"/>
<path d="M4275 3953 c105 -55 161 -179 131 -291 -25 -91 -79 -158 -328 -403
-153 -151 -236 -239 -229 -244 15 -9 9 -15 301 275 215 214 250 253 278 311
37 76 42 152 16 214 -22 55 -100 133 -143 145 -51 14 -61 12 -26 -7z"/>
<path d="M1922 3089 l3 -661 28 -24 c15 -13 37 -24 48 -24 19 0 19 1 -2 23
-11 12 -25 32 -30 45 -5 13 -9 305 -9 663 0 635 0 639 -20 639 -20 0 -20 -3
-18 -661z"/>
<path d="M4396 2903 c-14 -15 -26 -31 -26 -35 0 -4 23 -30 50 -58 57 -59 67
-49 15 14 l-35 43 20 26 c28 35 7 44 -24 10z"/>
<path d="M3139 2895 c-20 -7 -50 -20 -68 -30 -26 -13 -30 -19 -20 -31 16 -19
29 -18 29 4 0 13 18 27 58 45 60 27 61 35 1 12z"/>
<path d="M4455 2871 c-3 -5 -1 -12 5 -16 5 -3 10 1 10 9 0 18 -6 21 -15 7z"/>
<path d="M3205 2803 c-16 -21 -35 -44 -43 -51 -13 -10 -13 -15 -3 -25 10 -10
14 -8 22 6 6 10 24 33 40 51 29 33 37 56 20 56 -5 0 -21 -17 -36 -37z"/>
<path d="M4306 2824 c-21 -20 -20 -31 4 -61 11 -14 20 -32 20 -39 0 -12 29
-34 44 -34 3 0 -6 16 -19 36 -35 52 -39 72 -19 95 15 17 15 19 1 19 -8 0 -23
-7 -31 -16z"/>
<path d="M3106 2803 c-8 -20 18 -51 28 -34 4 6 2 11 -3 11 -6 0 -11 5 -11 10
0 6 7 10 16 10 8 0 12 5 9 10 -10 16 -32 12 -39 -7z"/>
<path d="M4370 2795 c0 -5 9 -23 20 -40 13 -20 20 -24 20 -14 0 18 -39 71 -40
54z"/>
<path d="M3295 2780 c-3 -6 1 -7 9 -4 18 7 21 14 7 14 -6 0 -13 -4 -16 -10z"/>
<path d="M4200 2749 l-24 -21 29 -55 c17 -30 34 -57 38 -60 21 -13 19 12 -6
62 l-26 54 26 21 c22 17 23 20 7 20 -11 -1 -30 -10 -44 -21z"/>
<path d="M3333 2713 c-17 -21 -33 -44 -37 -51 -10 -16 20 -52 43 -52 12 0 12
3 3 12 -19 19 -14 59 14 95 14 18 21 33 15 33 -5 0 -22 -17 -38 -37z"/>
<path d="M4265 2720 c-3 -5 -1 -10 4 -10 6 0 11 5 11 10 0 6 -2 10 -4 10 -3 0
-8 -4 -11 -10z"/>
<path d="M3403 2708 c-6 -7 -16 -23 -22 -35 -9 -18 -9 -22 2 -17 8 3 20 17 26
31 13 28 9 41 -6 21z"/>
<path d="M3241 2699 c-19 -8 -21 -12 -11 -24 12 -14 25 -12 25 3 0 4 4 13 8
20 9 14 10 14 -22 1z"/>
<path d="M3460 2694 c0 -11 -14 -36 -31 -57 -17 -21 -28 -44 -25 -52 6 -17 26
-20 26 -5 0 6 11 33 25 62 17 35 22 55 15 62 -7 7 -10 3 -10 -10z"/>
<path d="M4097 2703 c-19 -18 -2 -153 19 -153 11 0 13 18 11 80 -2 74 -10 94
-30 73z"/>
<path d="M3510 2654 c0 -8 5 -12 10 -9 6 3 10 10 10 16 0 5 -4 9 -10 9 -5 0
-10 -7 -10 -16z"/>
<path d="M3975 2654 c-22 -22 -15 -56 13 -70 13 -6 29 -17 35 -23 13 -13 37
-15 37 -2 0 5 -11 12 -25 15 -14 4 -31 18 -37 31 -9 21 -8 28 7 45 16 17 16
20 2 20 -8 0 -23 -7 -32 -16z"/>
<path d="M3620 2602 c-6 -31 -12 -65 -14 -74 -3 -12 2 -18 14 -18 14 0 20 13
29 63 14 79 14 74 -3 80 -11 5 -18 -8 -26 -51z"/>
<path d="M3770 2627 c0 -9 -6 -17 -12 -17 -9 0 -13 -19 -13 -60 0 -86 21 -77
28 12 3 40 4 74 2 77 -3 2 -5 -3 -5 -12z"/>
<path d="M3830 2628 c0 -17 20 -47 20 -31 0 6 3 18 6 27 4 11 1 16 -10 16 -9
0 -16 -6 -16 -12z"/>
<path d="M3472 2579 c-15 -24 -10 -35 11 -22 8 5 12 15 8 25 -6 16 -7 16 -19
-3z"/>
<path d="M3977 2544 c-9 -10 2 -24 19 -24 8 0 14 7 14 15 0 15 -21 21 -33 9z"/>
<path d="M3840 2500 c-13 -8 -12 -10 3 -10 9 0 17 5 17 10 0 12 -1 12 -20 0z"/>
<path d="M3913 2403 c9 -2 25 -2 35 0 9 3 1 5 -18 5 -19 0 -27 -2 -17 -5z"/>
<path d="M1746 2243 c11 -92 39 -156 89 -202 32 -29 53 -41 75 -41 l30 0 -42
38 c-47 42 -73 94 -84 166 -4 34 -15 57 -32 73 -38 35 -44 29 -36 -34z"/>
<path d="M5680 2286 c-8 -8 -62 -38 -119 -67 -114 -58 -146 -91 -136 -144 8
-41 43 -75 78 -75 l29 0 -26 31 c-30 35 -32 58 -11 99 15 29 54 56 157 108 29
15 54 35 56 45 4 21 -8 22 -28 3z"/>
<path d="M3663 2223 c9 -2 23 -2 30 0 6 3 -1 5 -18 5 -16 0 -22 -2 -12 -5z"/>
<path d="M3773 2213 c9 -2 23 -2 30 0 6 3 -1 5 -18 5 -16 0 -22 -2 -12 -5z"/>
<path d="M5261 2147 c-52 -80 -58 -116 -36 -209 21 -85 37 -108 77 -108 l30 0
-31 30 c-52 52 -55 150 -7 241 27 53 31 75 17 97 -5 9 -20 -6 -50 -51z"/>
<path d="M2113 2118 c-17 -46 -37 -99 -46 -119 -16 -36 -16 -36 13 -64 l30
-29 0 27 c0 15 17 68 37 118 29 72 35 95 27 116 -16 47 -31 36 -61 -49z"/>
<path d="M2314 1977 c1 -54 -3 -70 -26 -103 -36 -52 -36 -92 1 -121 l28 -22 0
39 c0 21 11 79 24 129 l24 91 -26 25 -25 26 0 -64z"/>
<path d="M5086 1988 c-62 -70 -71 -105 -58 -209 11 -91 24 -109 75 -109 l30 0
-26 20 c-61 48 -60 143 3 246 66 108 52 138 -24 52z"/>
<path d="M5483 1963 c-7 -2 -13 -17 -12 -31 0 -15 3 -21 6 -14 3 8 19 22 37
33 30 18 30 19 6 18 -14 0 -31 -3 -37 -6z"/>
<path d="M1680 1953 c0 -13 80 -109 110 -131 35 -27 103 -52 134 -51 19 0 19
1 -4 10 -48 19 -99 61 -145 120 -34 43 -53 59 -71 59 -13 0 -24 -3 -24 -7z"/>
<path d="M2503 1879 c19 -68 19 -97 -2 -144 -26 -59 -28 -110 -3 -119 9 -3 23
-9 30 -12 9 -4 12 11 13 58 0 35 4 90 9 123 7 50 5 64 -9 84 -24 35 -46 40
-38 10z"/>
<path d="M4878 1842 c-52 -51 -62 -65 -69 -108 -10 -60 -11 -137 -3 -159 8
-19 55 -45 85 -45 20 0 19 2 -9 28 -68 64 -52 172 38 270 39 42 51 72 29 72
-6 0 -38 -26 -71 -58z"/>
<path d="M5461 1883 c-1 -7 -10 -22 -22 -34 -17 -17 -18 -23 -8 -35 19 -24 65
-44 96 -43 24 0 25 1 8 8 -30 13 -56 46 -65 83 -4 18 -8 27 -9 21z"/>
<path d="M2106 1858 c-6 -27 -3 -31 22 -26 20 3 20 4 2 25 l-18 22 -6 -21z"/>
<path d="M2704 1778 c2 -7 12 -38 22 -67 15 -49 15 -60 2 -100 -20 -65 -11
-97 34 -120 l37 -19 -11 22 c-6 11 -13 76 -16 144 -5 123 -5 123 -33 137 -34
18 -42 19 -35 3z"/>
<path d="M4696 1765 c-108 -73 -119 -92 -131 -215 -6 -62 -4 -78 8 -88 22 -19
76 -32 82 -21 4 5 1 9 -5 9 -18 0 -50 63 -50 101 0 56 45 135 101 177 27 20
49 42 49 49 0 19 -13 16 -54 -12z"/>
<path d="M2045 1762 c-44 -9 -73 -17 -65 -19 8 -2 56 5 105 16 50 10 79 19 65
19 -14 0 -61 -7 -105 -16z"/>
<path d="M5263 1765 c-9 -25 0 -26 32 -5 l30 20 -28 0 c-16 0 -30 -7 -34 -15z"/>
<path d="M1905 1708 c39 -46 94 -88 144 -110 55 -23 91 -20 40 4 -19 10 -62
44 -95 77 -44 46 -66 61 -87 61 l-29 0 27 -32z"/>
<path d="M2320 1690 c0 -14 7 -20 22 -20 20 0 21 1 3 20 -10 11 -20 20 -22 20
-1 0 -3 -9 -3 -20z"/>
<path d="M2920 1706 c0 -2 14 -33 30 -68 26 -55 29 -70 24 -119 -7 -66 4 -94
43 -104 16 -3 36 -14 47 -23 13 -12 11 -6 -7 20 -14 22 -30 66 -37 105 -29
166 -30 170 -56 182 -25 11 -44 14 -44 7z"/>
<path d="M4435 1672 c-78 -42 -92 -62 -122 -174 l-18 -68 25 -25 c14 -13 41
-27 60 -31 l35 -7 -32 35 c-26 26 -33 43 -33 73 0 77 61 159 147 200 33 16 45
36 21 34 -7 0 -44 -17 -83 -37z"/>
<path d="M5220 1680 c-20 -16 -23 -22 -14 -37 16 -26 73 -63 97 -63 19 0 18 3
-10 33 -17 17 -34 44 -39 59 l-9 27 -25 -19z"/>
<path d="M3150 1654 c0 -3 17 -33 37 -66 28 -46 38 -73 41 -117 5 -68 19 -90
65 -100 l34 -8 -38 68 c-20 38 -40 82 -44 99 -4 16 -11 32 -16 35 -5 4 -9 19
-9 35 0 33 -23 60 -51 60 -10 0 -19 -3 -19 -6z"/>
<path d="M4235 1646 c-16 -8 -43 -17 -58 -20 -36 -9 -116 -82 -133 -123 -20
-46 -17 -75 9 -113 20 -30 68 -56 81 -43 2 2 -7 21 -20 40 -39 59 -30 106 35
181 32 36 55 53 85 61 23 6 48 15 56 21 24 16 -19 12 -55 -4z"/>
<path d="M2270 1589 c-41 -16 -93 -34 -115 -40 l-40 -11 40 -33 c53 -45 118
-76 168 -81 l42 -4 -38 14 c-47 19 -158 96 -152 106 3 4 21 11 41 15 20 3 70
19 112 35 58 22 70 29 47 29 -16 0 -64 -13 -105 -30z"/>
<path d="M5035 1609 c-11 -17 1 -21 15 -4 8 9 8 15 2 15 -6 0 -14 -5 -17 -11z"/>
<path d="M2560 1545 c0 -8 7 -15 16 -15 14 0 14 3 4 15 -7 8 -14 15 -16 15 -2
0 -4 -7 -4 -15z"/>
<path d="M4980 1541 c-21 -17 -23 -23 -15 -47 12 -34 77 -74 120 -74 l30 0
-30 16 c-42 21 -65 53 -65 92 0 37 -6 39 -40 13z"/>
<path d="M2600 1485 c-19 -7 -70 -32 -113 -54 -43 -23 -85 -41 -93 -41 -31 0
-6 -25 55 -56 58 -30 122 -48 120 -35 0 3 -28 20 -61 36 -59 29 -85 55 -55 55
8 0 63 25 123 55 68 34 100 55 84 54 -14 0 -41 -6 -60 -14z"/>
<path d="M4772 1471 c-12 -16 -32 -31 -44 -33 -17 -2 -24 -11 -26 -31 -4 -35
49 -89 104 -107 42 -14 58 -6 20 11 -32 15 -66 67 -66 102 0 14 12 39 26 56
14 17 22 31 17 31 -5 0 -19 -13 -31 -29z"/>
<path d="M2810 1450 c0 -5 5 -10 11 -10 5 0 7 5 4 10 -3 6 -8 10 -11 10 -2 0
-4 -4 -4 -10z"/>
<path d="M2875 1401 c-22 -11 -58 -35 -80 -54 -22 -20 -61 -46 -87 -58 -27
-12 -48 -26 -48 -31 0 -14 80 -46 130 -53 l45 -6 -54 23 c-59 25 -73 43 -42
53 11 3 49 27 83 52 35 26 81 57 103 70 36 20 37 23 15 23 -14 0 -43 -9 -65
-19z"/>
<path d="M4463 1374 c-35 -15 -43 -46 -23 -84 17 -32 101 -90 129 -90 25 0 25
1 -10 21 -60 35 -85 100 -59 150 12 22 7 23 -37 3z"/>
<path d="M3142 1343 c-22 -16 -54 -47 -71 -70 -17 -23 -48 -52 -70 -63 -22
-11 -42 -24 -46 -30 -8 -13 29 -27 91 -34 l49 -6 -39 13 c-21 6 -38 15 -38 20
2 9 146 144 187 174 l30 22 -26 1 c-14 0 -44 -12 -67 -27z"/>
<path d="M4198 1347 c-38 -10 -48 -27 -48 -79 0 -55 93 -127 164 -128 28 0 26
2 -20 25 -27 13 -57 38 -67 54 -21 36 -22 89 -1 119 8 12 14 21 12 21 -2 -1
-20 -6 -40 -12z"/>
<path d="M3371 1315 c3 -2 45 -18 94 -36 88 -31 185 -75 185 -84 0 -3 -21 -24
-46 -47 -47 -44 -82 -95 -109 -163 l-16 -40 58 61 c32 34 84 91 116 128 l59
66 -55 25 c-113 52 -309 114 -286 90z"/>
<path d="M3870 1291 c-78 -21 -107 -35 -92 -45 6 -4 25 0 41 8 16 9 60 24 98
35 37 11 57 20 43 20 -14 0 -54 -8 -90 -18z"/>
<path d="M3766 1141 c-3 -5 11 -20 32 -34 20 -15 66 -56 101 -92 35 -36 66
-63 69 -61 2 3 -7 27 -20 53 -16 32 -46 64 -87 96 -61 46 -84 56 -95 38z"/>
</g>
</svg>
